<svg width="51" height="51" viewBox="0 0 51 51" fill="none" xmlns="http://www.w3.org/2000/svg">
<g clip-path="url(#clip0_18_853)">
<path d="M46.4968 14.0384L46.4952 13.9995C46.4735 13.5193 46.459 13.0111 46.4502 12.4458C46.4094 9.68893 44.2179 7.40851 41.4606 7.2544C35.7119 6.93358 31.2647 5.05904 27.4649 1.35536L27.4325 1.32446C26.1931 0.188069 24.3235 0.188069 23.0837 1.32446L23.0513 1.35536C19.2515 5.05904 14.8043 6.93358 9.05562 7.25478C6.29874 7.40851 4.10682 9.68893 4.06601 12.4462C4.05761 13.0077 4.04274 13.5158 4.02099 13.9995L4.0187 14.0899C3.90693 19.952 3.76808 27.2475 6.20872 33.8695C7.55072 37.511 9.58319 40.6764 12.2493 43.2784C15.2858 46.2416 19.263 48.5942 24.0702 50.2703C24.2266 50.3249 24.3891 50.3691 24.5547 50.4023C24.7881 50.4489 25.0231 50.4721 25.2581 50.4721C25.4931 50.4721 25.7285 50.4489 25.9615 50.4023C26.1271 50.3691 26.2908 50.3245 26.4479 50.2696C31.2495 48.5903 35.2225 46.2367 38.2563 43.2738C40.9212 40.6711 42.9537 37.5049 44.2968 33.8626C46.7466 27.2208 46.6082 19.9115 46.4968 14.0384ZM41.5442 32.8475C38.97 39.8269 33.7153 44.62 25.4797 47.5001C25.4504 47.51 25.4191 47.5188 25.3867 47.5253C25.3016 47.5421 25.215 47.5421 25.1288 47.5249C25.0968 47.5184 25.0655 47.51 25.0365 47.5001C16.7922 44.6254 11.534 39.8349 8.96178 32.8551C6.71225 26.7513 6.83967 20.0542 6.9522 14.146L6.95296 14.1132C6.97585 13.6055 6.99111 13.0737 6.9995 12.4893C7.01781 11.2652 7.99285 10.2524 9.21927 10.1841C12.4724 10.0025 15.3304 9.37383 17.9564 8.26224C20.579 7.15216 22.9083 5.58738 25.0765 3.47862C25.1868 3.38554 25.3298 3.38516 25.4397 3.47862C27.6083 5.58738 29.9376 7.15216 32.5598 8.26224C35.1858 9.37383 38.0438 10.0025 41.2973 10.1841C42.5238 10.2524 43.4988 11.2652 43.5167 12.4897C43.5255 13.0771 43.5408 13.6089 43.5637 14.1132C43.6758 20.0283 43.8002 26.7307 41.5442 32.8475Z" fill="#244D4D"/>
<path d="M25.2576 13.0122C18.3866 13.0122 12.7969 18.6023 12.7969 25.4729C12.7969 32.3439 18.3866 37.934 25.2576 37.934C32.1282 37.934 37.7183 32.3439 37.7183 25.4729C37.7183 18.6023 32.1282 13.0122 25.2576 13.0122ZM25.2576 34.9997C20.0044 34.9997 15.7308 30.7261 15.7308 25.4729C15.7308 20.2197 20.0044 15.9461 25.2576 15.9461C30.5104 15.9461 34.784 20.2197 34.784 25.4729C34.784 30.7261 30.5104 34.9997 25.2576 34.9997Z" fill="#244D4D"/>
<path d="M28.8394 21.6046L23.0517 27.3922L21.4808 25.8213C20.9078 25.2484 19.979 25.2484 19.406 25.8213C18.8334 26.3943 18.8334 27.3232 19.406 27.8958L22.0145 30.5043C22.301 30.7907 22.6763 30.9338 23.0517 30.9338C23.4271 30.9338 23.8024 30.7907 24.0889 30.5043L30.9142 23.679C31.4868 23.106 31.4868 22.1772 30.9142 21.6046C30.3412 21.0312 29.4123 21.0312 28.8394 21.6046Z" fill="#244D4D"/>
</g>
<defs>
<clipPath id="clip0_18_853">
<rect width="50" height="50" fill="white" transform="translate(0.257812 0.472168)"/>
</clipPath>
</defs>
</svg>
