<svg width="17" height="17" viewBox="0 0 17 17" fill="none" xmlns="http://www.w3.org/2000/svg">
<g clip-path="url(#clip0_122_795)">
<path d="M10.623 8.44845L16.017 11.8585V4.89445L10.623 8.44845Z" fill="#7F7F7F"/>
<path d="M0.0175781 4.89445V11.8585L5.41158 8.44845L0.0175781 4.89445Z" fill="#7F7F7F"/>
<path d="M15.0169 2.86646H1.01688C0.517875 2.86646 0.121875 3.23846 0.046875 3.71746L8.01687 8.96846L15.9869 3.71746C15.9119 3.23846 15.5159 2.86646 15.0169 2.86646Z" fill="#7F7F7F"/>
<path d="M9.70683 9.05254L8.29183 9.98454C8.20783 10.0395 8.11283 10.0665 8.01683 10.0665C7.92083 10.0665 7.82583 10.0395 7.74183 9.98454L6.32683 9.05154L0.0488281 13.0225C0.125828 13.4975 0.519828 13.8665 1.01683 13.8665H15.0168C15.5138 13.8665 15.9078 13.4975 15.9848 13.0225L9.70683 9.05254Z" fill="#7F7F7F"/>
</g>
<defs>
<clipPath id="clip0_122_795">
<rect width="16" height="16" fill="white" transform="translate(0.0175781 0.366455)"/>
</clipPath>
</defs>
</svg>
