<svg width="20" height="21" viewBox="0 0 20 21" fill="none" xmlns="http://www.w3.org/2000/svg">
<g clip-path="url(#clip0_122_845)">
<path d="M10 20.9253C15.5228 20.9253 20 16.4481 20 10.9253C20 5.40245 15.5228 0.925293 10 0.925293C4.47715 0.925293 0 5.40245 0 10.9253C0 16.4481 4.47715 20.9253 10 20.9253Z" fill="white"/>
<path d="M12.5139 11.3168H10.7295V17.8539H8.02602V11.3168H6.74023V9.01937H8.02602V7.53268C8.02602 6.46954 8.53103 4.80478 10.7536 4.80478L12.7561 4.81316V7.04318H11.3031C11.0648 7.04318 10.7297 7.16226 10.7297 7.66941V9.02151H12.7501L12.5139 11.3168Z" fill="#305F64"/>
</g>
<defs>
<clipPath id="clip0_122_845">
<rect width="20" height="20" fill="white" transform="translate(0 0.925293)"/>
</clipPath>
</defs>
</svg>
