<svg width="51" height="51" viewBox="0 0 51 51" fill="none" xmlns="http://www.w3.org/2000/svg">
<g clip-path="url(#clip0_18_874)">
<path d="M47.5795 18.1899C46.9197 16.1469 47.201 13.0802 45.4861 10.7123C43.7578 8.32581 40.7519 7.64749 39.0545 6.40609C37.375 5.17777 35.8125 2.50482 32.9874 1.58294C30.242 0.687044 27.4346 1.90277 25.2578 1.90277C23.0813 1.90277 20.2741 0.686751 17.5282 1.58285C14.7036 2.50452 13.1398 5.17806 11.4614 6.40579C9.76592 7.64574 6.75771 8.32591 5.02969 10.712C3.31631 13.078 3.59473 16.1517 2.93613 18.1898C2.30938 20.1295 0.257812 22.4576 0.257812 25.4724C0.257812 28.4891 2.30703 30.8081 2.93613 32.7549C3.5959 34.7979 3.31465 37.8646 5.02949 40.2325C6.75771 42.6191 9.76357 43.2973 11.4611 44.5388C13.1403 45.7669 14.7031 48.4401 17.5282 49.3619C20.2718 50.2572 23.0836 49.042 25.2578 49.042C27.429 49.042 30.2474 50.2559 32.9874 49.3619C35.8121 48.4403 37.3749 45.7673 39.0542 44.539C40.7497 43.2991 43.7579 42.6189 45.4859 40.2327C47.1994 37.8667 46.9208 34.7933 47.5795 32.755C48.2062 30.8152 50.2578 28.4871 50.2578 25.4724C50.2578 22.4559 48.2091 20.1375 47.5795 18.1899ZM43.8626 31.5538C43.0936 33.9342 43.295 36.5982 42.3224 37.9413C41.3366 39.3024 38.7469 39.9241 36.7485 41.3858C34.7721 42.8312 33.3868 45.1225 31.7757 45.6482C30.2515 46.1456 27.7675 45.1356 25.2579 45.1356C22.73 45.1356 20.2716 46.1478 18.74 45.6482C17.1291 45.1225 15.7458 42.8328 13.7672 41.3857C11.7807 39.9328 9.17617 39.2984 8.19326 37.9412C7.22373 36.6025 7.41758 33.9201 6.65322 31.5539C5.904 29.2357 4.16406 27.2284 4.16406 25.4724C4.16406 23.7147 5.90244 21.7143 6.65303 19.391C7.42207 17.0107 7.22061 14.3465 8.19326 13.0035C9.17842 11.6433 11.7701 11.0196 13.7672 9.55902C15.7499 8.10892 17.1265 5.82308 18.7398 5.29662C20.2628 4.79974 22.7549 5.80921 25.2577 5.80921C27.7902 5.80921 30.2425 4.79632 31.7756 5.29662C33.3863 5.8222 34.7708 8.11283 36.7485 9.55912C38.7348 11.0119 41.3395 11.6464 42.3224 13.0035C43.2921 14.3425 43.0972 17.0222 43.8624 19.3908V19.3909C44.6116 21.7091 46.3516 23.7164 46.3516 25.4724C46.3516 27.2301 44.6132 29.2305 43.8626 31.5538ZM34.2562 19.2034C35.0189 19.9661 35.0189 21.2028 34.2562 21.9655L24.4802 31.7414C23.7174 32.5042 22.4807 32.5041 21.718 31.7414L16.2596 26.283C15.4968 25.5203 15.4967 24.2836 16.2595 23.5209C17.0223 22.7582 18.2591 22.7581 19.0216 23.5209L23.099 27.5983L31.4938 19.2035C32.2566 18.4407 33.4934 18.4407 34.2562 19.2034Z" fill="#244D4D"/>
</g>
<defs>
<clipPath id="clip0_18_874">
<rect width="50" height="50" fill="white" transform="translate(0.257812 0.472168)"/>
</clipPath>
</defs>
</svg>
