<svg width="51" height="51" viewBox="0 0 51 51" fill="none" xmlns="http://www.w3.org/2000/svg">
<g clip-path="url(#clip0_18_862)">
<path d="M40.9479 20.8843H36.1367V17.6421C36.1367 16.8331 35.4809 16.1772 34.6719 16.1772H1.72266C0.913672 16.1772 0.257812 16.8331 0.257812 17.6421V44.3152C0.257812 45.1242 0.913672 45.7801 1.72266 45.7801H6.71094C8.30508 52.0185 17.1088 52.0143 18.7005 45.7801H31.815C33.4092 52.0185 42.2129 52.0143 43.8046 45.7801H48.793C49.602 45.7801 50.2578 45.1242 50.2578 44.3152V30.1941C50.2578 25.0606 46.0813 20.8843 40.9479 20.8843ZM12.7058 47.5574C10.918 47.5574 9.46357 46.1029 9.46357 44.3152C9.6416 40.0141 15.7706 40.0153 15.948 44.3152C15.948 46.1029 14.4935 47.5574 12.7058 47.5574ZM33.207 40.2093C32.5444 40.9513 32.0587 41.8536 31.815 42.8503H18.7005C17.1063 36.612 8.30264 36.6162 6.71094 42.8503H3.1875V19.1068H33.207V40.2093ZM37.8099 47.5574C36.0221 47.5574 34.5677 46.1029 34.5677 44.3152C34.7457 40.0141 40.8747 40.0153 41.0521 44.3152C41.0521 46.1029 39.5977 47.5574 37.8099 47.5574ZM47.3281 42.8504H43.8063C43.1469 40.152 40.7086 38.1434 37.81 38.1434H36.1367V23.814H39.4831V33.3322C39.4831 34.1412 40.139 34.7971 40.9479 34.7971H47.3281V42.8504ZM47.3281 31.8673H42.4128V23.9836C45.2271 24.6474 47.3281 27.1801 47.3281 30.1941V31.8673Z" fill="#244D4D"/>
<path d="M36.2406 12.8308H40.1631C42.1067 12.7534 42.1052 9.97778 40.1631 9.90112H37.9698L38.266 8.12378H40.1631C42.1067 8.04634 42.1052 5.27075 40.1631 5.19409H38.7542L39.0504 3.41675H41.7321C43.6756 3.33931 43.6742 0.563721 41.7321 0.487061H37.8095C37.0934 0.487061 36.4823 1.00474 36.3646 1.71108L34.7957 11.1251C34.6468 12.0182 35.3367 12.8308 36.2406 12.8308Z" fill="#222222"/>
<path d="M26.8264 12.8308H30.749C32.6925 12.7534 32.6911 9.97778 30.749 9.90112H28.5556L28.8518 8.12378H30.749C32.6925 8.04634 32.6911 5.27075 30.749 5.19409H29.3402L29.6365 3.41675H32.318C34.2616 3.33931 34.2601 0.563721 32.318 0.487061H28.3956C27.6794 0.487061 27.0683 1.00474 26.9506 1.71108L25.3816 11.1251C25.2328 12.0182 25.9226 12.8308 26.8264 12.8308Z" fill="#244D4D"/>
<path d="M15.6033 12.8109C16.7406 13.0004 17.2209 12.015 17.289 11.6068L17.5292 10.1656L20.4131 12.5038C21.0797 13.0441 21.9957 12.8779 22.4736 12.2884C22.9831 11.66 22.8867 10.7375 22.2582 10.2281L20.6302 8.90825H21.9891C22.7051 8.90825 23.3163 8.39058 23.434 7.68433L24.3496 2.19282C24.4984 1.29966 23.8085 0.487061 22.9046 0.487061H17.4131C16.697 0.487061 16.0859 1.00474 15.9682 1.71108L15.0591 7.16519C15.0587 7.16714 15.0585 7.16919 15.0581 7.17114C15.0574 7.17505 15.0569 7.17896 15.0562 7.18286C15.053 7.20073 15.0498 7.2187 15.0472 7.23677L14.3991 11.1251C14.2661 11.9231 14.8052 12.6779 15.6033 12.8109ZM18.654 3.41675H21.1753L20.7483 5.97856H18.227L18.654 3.41675Z" fill="#244D4D"/>
<path d="M6.97233 12.8108C8.10964 13.0003 8.59001 12.0148 8.65808 11.6067L9.10778 8.90825H11.1356C13.0792 8.83081 13.0777 6.05522 11.1356 5.97856H9.59607L10.023 3.41675H12.7047C14.6482 3.33931 14.6467 0.563721 12.7047 0.487061H8.7821C8.06599 0.487061 7.45485 1.00474 7.33718 1.71108L5.76823 11.1251C5.63513 11.923 6.17429 12.6778 6.97233 12.8108Z" fill="#244D4D"/>
</g>
<defs>
<clipPath id="clip0_18_862">
<rect width="50" height="50" fill="white" transform="translate(0.257812 0.472168)"/>
</clipPath>
</defs>
</svg>
