<svg width="26" height="26" viewBox="0 0 26 26" fill="none" xmlns="http://www.w3.org/2000/svg">
<circle cx="13" cy="13" r="13" fill="#EF5423"/>
<g clip-path="url(#clip0_2_1831)">
<path d="M13 17.4436C12.8576 17.4436 12.7204 17.3921 12.6134 17.2984C12.2094 16.9451 11.82 16.6132 11.4763 16.3204L11.4746 16.3188C10.4671 15.4603 9.59713 14.7189 8.99182 13.9885C8.31517 13.172 8 12.3979 8 11.5522C8 10.7305 8.28175 9.97242 8.7933 9.41754C9.31096 8.85609 10.0213 8.54688 10.7936 8.54688C11.3708 8.54688 11.8995 8.72937 12.3648 9.08925C12.5996 9.2709 12.8125 9.49322 13 9.75255C13.1876 9.49322 13.4004 9.2709 13.6353 9.08925C14.1006 8.72937 14.6292 8.54688 15.2065 8.54688C15.9787 8.54688 16.6891 8.85609 17.2068 9.41754C17.7183 9.97242 18 10.7305 18 11.5522C18 12.3979 17.6849 13.172 17.0082 13.9885C16.4029 14.7189 15.533 15.4602 14.5257 16.3187C14.1815 16.612 13.7914 16.9445 13.3865 17.2985C13.2796 17.3921 13.1423 17.4436 13 17.4436ZM10.7936 9.13266C10.1868 9.13266 9.62941 9.37482 9.22391 9.81457C8.81238 10.261 8.58571 10.878 8.58571 11.5522C8.58571 12.2635 8.85007 12.8996 9.44279 13.6148C10.0157 14.3061 10.8678 15.0322 11.8544 15.8731L11.8563 15.8746C12.2012 16.1685 12.5922 16.5018 12.9992 16.8576C13.4085 16.5011 13.8002 16.1673 14.1458 15.8729C15.1323 15.0321 15.9844 14.3061 16.5573 13.6148C17.1499 12.8996 17.4143 12.2635 17.4143 11.5522C17.4143 10.878 17.1876 10.261 16.7761 9.81457C16.3707 9.37482 15.8132 9.13266 15.2065 9.13266C14.762 9.13266 14.3539 9.27395 13.9936 9.55258C13.6724 9.80099 13.4488 10.115 13.3176 10.3347C13.2502 10.4477 13.1314 10.5152 13 10.5152C12.8685 10.5152 12.7498 10.4477 12.6824 10.3347C12.5513 10.115 12.3276 9.80099 12.0064 9.55258C11.6461 9.27395 11.238 9.13266 10.7936 9.13266Z" fill="white"/>
</g>
<defs>
<clipPath id="clip0_2_1831">
<rect width="10" height="9.99998" fill="white" transform="translate(8 8)"/>
</clipPath>
</defs>
</svg>
