<svg width="107" height="38" viewBox="0 0 107 38" fill="none" xmlns="http://www.w3.org/2000/svg">
<path d="M13.0517 0.294067H4.77051C4.20372 0.294067 3.72183 0.836737 3.6334 1.57416L0.284087 29.5571C0.217471 30.109 0.542061 30.6069 0.967017 30.6069H4.9206C5.48729 30.6069 5.96918 30.0645 6.05761 29.3257L6.96091 21.7784C7.04815 21.0394 7.53123 20.4968 8.09673 20.4968H10.7183C16.1734 20.4968 19.3217 17.0183 20.1439 10.1251C20.5144 7.10925 20.1596 4.73977 19.088 3.08031C17.911 1.25788 15.8234 0.294067 13.0517 0.294067ZM14.0071 10.5145C13.5543 14.4302 11.2838 14.4302 9.08846 14.4302H7.83885L8.7155 7.11735C8.76762 6.67529 9.05816 6.34979 9.39726 6.34979H9.96996C11.4654 6.34979 12.8762 6.34979 13.6051 7.47301C14.0398 8.14329 14.173 9.13893 14.0071 10.5145Z" fill="#283B82"/>
<path d="M37.8053 10.3883H33.8398C33.502 10.3883 33.2102 10.7138 33.1579 11.1558L32.9826 12.6174L32.7052 12.0876C31.8467 10.4456 29.9321 9.89685 28.0214 9.89685C23.6392 9.89685 19.8964 14.2705 19.1674 20.4058C18.7885 23.4663 19.3273 26.3927 20.6447 28.4335C21.8532 30.3099 23.5823 31.0918 25.6397 31.0918C29.1707 31.0918 31.1287 28.1001 31.1287 28.1001L30.9518 29.5522C30.8851 30.1074 31.2098 30.6053 31.6324 30.6053H35.2043C35.7723 30.6053 36.2518 30.0627 36.3415 29.324L38.4847 11.4382C38.5526 10.8877 38.2292 10.3883 37.8053 10.3883ZM32.2777 20.559C31.8952 23.5444 30.0969 25.5487 27.8036 25.5487C26.6521 25.5487 25.7317 25.0619 25.1407 24.1396C24.5547 23.2237 24.3318 21.9201 24.5184 20.468C24.8755 17.5081 26.7041 15.4386 28.9622 15.4386C30.0885 15.4386 31.0039 15.9316 31.6069 16.8617C32.2112 17.8016 32.4508 19.1133 32.2777 20.559Z" fill="#283B82"/>
<path d="M58.9256 10.3884H54.9406C54.5604 10.3884 54.2032 10.6374 53.9876 11.0539L48.4914 21.7225L46.1617 11.4703C46.0152 10.8288 45.566 10.3884 45.0574 10.3884H41.1414C40.6654 10.3884 40.335 11.0011 40.4863 11.5915L44.8757 28.5661L40.749 36.2429C40.4244 36.8475 40.7513 37.6792 41.3122 37.6792H45.2924C45.6701 37.6792 46.0238 37.4365 46.238 37.028L59.4923 11.8166C59.8096 11.2133 59.4839 10.3884 58.9256 10.3884Z" fill="#283B82"/>
<path d="M72.12 0.294067H63.8376C63.2722 0.294067 62.7901 0.836737 62.7017 1.57416L59.3524 29.5571C59.286 30.109 59.6104 30.6069 60.033 30.6069H64.2833C64.6779 30.6069 65.0159 30.2273 65.0776 29.7103L66.028 21.7784C66.1152 21.0394 66.5985 20.4968 67.1639 20.4968H69.7843C75.2404 20.4968 78.3876 17.0183 79.211 10.1251C79.5829 7.10925 79.2257 4.73977 78.1539 3.08031C76.9781 1.25788 74.8918 0.294067 72.12 0.294067ZM73.0755 10.5145C72.6238 14.4302 70.3536 14.4302 68.1568 14.4302H66.9085L67.7864 7.11735C67.8385 6.67529 68.1265 6.34979 68.4668 6.34979H69.0395C70.5339 6.34979 71.9457 6.34979 72.6746 7.47301C73.1094 8.14329 73.2413 9.13893 73.0755 10.5145Z" fill="#469BDB"/>
<path d="M96.8726 10.3883H92.9094C92.5691 10.3883 92.2795 10.7138 92.2288 11.1558L92.0532 12.6174L91.7748 12.0876C90.9163 10.4456 89.003 9.89685 87.0923 9.89685C82.7099 9.89685 78.9685 14.2705 78.2393 20.4058C77.8616 23.4663 78.398 26.3927 79.7155 28.4335C80.9265 30.3099 82.653 31.0918 84.7103 31.0918C88.2413 31.0918 90.1993 28.1001 90.1993 28.1001L90.0224 29.5522C89.956 30.1074 90.2804 30.6053 90.7056 30.6053H94.2764C94.8419 30.6053 95.3239 30.0627 95.4123 29.324L97.5568 11.4382C97.622 10.8877 97.2976 10.3883 96.8726 10.3883ZM91.3448 20.559C90.9645 23.5444 89.1639 25.5487 86.8707 25.5487C85.7214 25.5487 84.7987 25.0619 84.2078 24.1396C83.6219 23.2237 83.4014 21.9201 83.5856 20.468C83.9451 17.5081 85.7712 15.4386 88.0296 15.4386C89.1556 15.4386 90.0709 15.9316 90.674 16.8617C91.2806 17.8016 91.5203 19.1133 91.3448 20.559Z" fill="#469BDB"/>
<path d="M101.548 1.06178L98.1493 29.5571C98.0828 30.109 98.4072 30.6069 98.8299 30.6069H102.247C102.815 30.6069 103.297 30.0645 103.384 29.3257L106.736 1.34443C106.802 0.79211 106.478 0.292725 106.055 0.292725H102.229C101.891 0.294058 101.6 0.619989 101.548 1.06178Z" fill="#469BDB"/>
</svg>
