<svg width="26" height="26" viewBox="0 0 26 26" fill="none" xmlns="http://www.w3.org/2000/svg">
<circle cx="13" cy="13" r="13" fill="#ECF4FF"/>
<g clip-path="url(#clip0_2_1836)">
<path d="M15.9297 14.4844C15.3509 14.4844 14.8365 14.7657 14.5161 15.1987L11.7569 13.7886C11.8032 13.6313 11.8281 13.465 11.8281 13.293C11.8281 13.0599 11.7824 12.8374 11.6997 12.6337L14.5915 10.8963C14.9142 11.275 15.3943 11.5156 15.9297 11.5156C16.8989 11.5156 17.6875 10.7271 17.6875 9.75781C17.6875 8.78855 16.8989 8 15.9297 8C14.9604 8 14.1719 8.78855 14.1719 9.75781C14.1719 9.98184 14.2141 10.1962 14.2908 10.3934L11.3918 12.1352C11.0694 11.7676 10.5965 11.5352 10.0703 11.5352C9.10105 11.5352 8.3125 12.3237 8.3125 13.293C8.3125 14.2622 9.10105 15.0508 10.0703 15.0508C10.6586 15.0508 11.1803 14.7602 11.4996 14.3151L14.2507 15.7211C14.1995 15.8858 14.1719 16.0608 14.1719 16.2422C14.1719 17.2114 14.9604 18 15.9297 18C16.8989 18 17.6875 17.2114 17.6875 16.2422C17.6875 15.2729 16.8989 14.4844 15.9297 14.4844ZM15.9297 8.58594C16.5759 8.58594 17.1016 9.11164 17.1016 9.75781C17.1016 10.404 16.5759 10.9297 15.9297 10.9297C15.2835 10.9297 14.7578 10.404 14.7578 9.75781C14.7578 9.11164 15.2835 8.58594 15.9297 8.58594ZM10.0703 14.4648C9.42414 14.4648 8.89844 13.9391 8.89844 13.293C8.89844 12.6468 9.42414 12.1211 10.0703 12.1211C10.7165 12.1211 11.2422 12.6468 11.2422 13.293C11.2422 13.9391 10.7165 14.4648 10.0703 14.4648ZM15.9297 17.4141C15.2835 17.4141 14.7578 16.8884 14.7578 16.2422C14.7578 15.596 15.2835 15.0703 15.9297 15.0703C16.5759 15.0703 17.1016 15.596 17.1016 16.2422C17.1016 16.8884 16.5759 17.4141 15.9297 17.4141Z" fill="black"/>
</g>
<defs>
<clipPath id="clip0_2_1836">
<rect width="10" height="10" fill="white" transform="translate(8 8)"/>
</clipPath>
</defs>
</svg>
