<svg width="20" height="21" viewBox="0 0 20 21" fill="none" xmlns="http://www.w3.org/2000/svg">
<g clip-path="url(#clip0_122_850)">
<path d="M10.0019 20.9251C15.5247 20.9251 20.0018 16.448 20.0018 10.9252C20.0018 5.40241 15.5247 0.925293 10.0019 0.925293C4.47907 0.925293 0.00195312 5.40241 0.00195312 10.9252C0.00195312 16.448 4.47907 20.9251 10.0019 20.9251Z" fill="white"/>
<path d="M16.1271 8.11188C15.6986 8.30191 15.2376 8.43043 14.7542 8.48783C15.2478 8.1921 15.6266 7.72417 15.8054 7.16569C15.3435 7.43967 14.8317 7.63843 14.2875 7.74556C13.8515 7.2812 13.2303 6.991 12.5424 6.991C11.2226 6.991 10.1521 8.06144 10.1521 9.38126C10.1521 9.56861 10.1733 9.75096 10.2143 9.92601C8.22782 9.82637 6.46646 8.87483 5.28746 7.42826C5.08175 7.78121 4.96374 8.1921 4.96374 8.63008C4.96374 9.45916 5.38603 10.1911 6.02705 10.6196C5.63542 10.6073 5.2666 10.4998 4.94449 10.3203C4.94431 10.3305 4.94431 10.3406 4.94431 10.3506C4.94431 11.5088 5.76858 12.4747 6.86183 12.6942C6.66147 12.7491 6.44988 12.7781 6.23222 12.7781C6.07785 12.7781 5.92829 12.7633 5.78248 12.7355C6.08659 13.6849 6.96914 14.376 8.01534 14.3955C7.19713 15.0367 6.16663 15.4187 5.04645 15.4187C4.85393 15.4187 4.6632 15.4074 4.47656 15.3852C5.53381 16.0636 6.79053 16.4592 8.1403 16.4592C12.5368 16.4592 14.9412 12.817 14.9412 9.65809C14.9412 9.55452 14.9389 9.45131 14.9342 9.34899C15.4016 9.01209 15.8068 8.59122 16.1271 8.11188Z" fill="#305F64"/>
</g>
<defs>
<clipPath id="clip0_122_850">
<rect width="20" height="20" fill="white" transform="translate(0 0.925293)"/>
</clipPath>
</defs>
</svg>
